<svg width="154" height="40" viewBox="0 0 154 40" fill="none" xmlns="http://www.w3.org/2000/svg">
<path d="M20 15C17.2385 15 15 12.7614 15 10C15 7.23858 17.2385 5 20 5C22.7615 5 25 7.23858 25 10C25 12.7614 22.7615 15 20 15Z" stroke="white" stroke-width="2.5"/>
<path d="M9.1665 35C6.40509 35 4.1665 32.7615 4.1665 30C4.1665 27.2385 6.40509 25 9.1665 25C11.9279 25 14.1665 27.2385 14.1665 30C14.1665 32.7615 11.9279 35 9.1665 35Z" stroke="white" stroke-width="2.5"/>
<path d="M30.8335 35C28.072 35 25.8335 32.7615 25.8335 30C25.8335 27.2385 28.072 25 30.8335 25C33.595 25 35.8335 27.2385 35.8335 30C35.8335 32.7615 33.595 35 30.8335 35Z" stroke="white" stroke-width="2.5"/>
<path d="M33.3332 21.667C33.3332 17.6847 31.5873 14.1101 28.8192 11.667M6.6665 21.667C6.6665 17.6847 8.41237 14.1101 11.1805 11.667M16.6665 34.5803C17.7318 34.8545 18.8488 35.0003 19.9998 35.0003C21.1508 35.0003 22.2678 34.8545 23.3332 34.5803" stroke="white" stroke-width="2.5" stroke-linecap="round"/>
<path d="M47.125 31.5V14.0455H54.6591C55.9545 14.0455 57.0881 14.2812 58.0597 14.7528C59.0313 15.2244 59.7869 15.9034 60.3267 16.7898C60.8665 17.6761 61.1364 18.7386 61.1364 19.9773C61.1364 21.2273 60.858 22.2812 60.3011 23.1392C59.75 23.9972 58.9744 24.6449 57.9744 25.0824C56.9801 25.5199 55.8182 25.7386 54.4886 25.7386H49.9886V22.0568H53.5341C54.0909 22.0568 54.5653 21.9886 54.9574 21.8523C55.3551 21.7102 55.6591 21.4858 55.8693 21.179C56.0852 20.8722 56.1932 20.4716 56.1932 19.9773C56.1932 19.4773 56.0852 19.071 55.8693 18.7585C55.6591 18.4403 55.3551 18.2074 54.9574 18.0597C54.5653 17.9062 54.0909 17.8295 53.5341 17.8295H51.8636V31.5H47.125ZM57.3523 23.4886L61.7159 31.5H56.5682L52.3068 23.4886H57.3523ZM69.2159 31.7386C67.8182 31.7386 66.6136 31.4716 65.6023 30.9375C64.5966 30.3977 63.821 29.625 63.2756 28.6193C62.7358 27.608 62.4659 26.3977 62.4659 24.9886C62.4659 23.6364 62.7386 22.4545 63.2841 21.4432C63.8295 20.4318 64.5994 19.6449 65.5938 19.0824C66.5881 18.5199 67.7614 18.2386 69.1136 18.2386C70.1023 18.2386 70.9972 18.392 71.7983 18.6989C72.5994 19.0057 73.2841 19.4517 73.8523 20.0369C74.4205 20.6165 74.858 21.321 75.1648 22.1506C75.4716 22.9801 75.625 23.9148 75.625 24.9545V26.0455H63.9318V23.4545H71.2955C71.2898 23.0795 71.1932 22.75 71.0057 22.4659C70.8239 22.1761 70.5767 21.9517 70.2642 21.7926C69.9574 21.6278 69.608 21.5455 69.2159 21.5455C68.8352 21.5455 68.4858 21.6278 68.1676 21.7926C67.8494 21.9517 67.5938 22.1733 67.4006 22.4574C67.2131 22.7415 67.1136 23.0739 67.1023 23.4545V26.25C67.1023 26.6705 67.1903 27.0455 67.3665 27.375C67.5426 27.7045 67.7955 27.9631 68.125 28.1506C68.4545 28.3381 68.8523 28.4318 69.3182 28.4318C69.642 28.4318 69.9375 28.3864 70.2045 28.2955C70.4773 28.2045 70.7102 28.0739 70.9034 27.9034C71.0966 27.7273 71.2386 27.517 71.3295 27.2727H75.625C75.4773 28.1818 75.1278 28.9716 74.5767 29.642C74.0256 30.3068 73.2955 30.8239 72.3864 31.1932C71.483 31.5568 70.4261 31.7386 69.2159 31.7386ZM86.8857 19.5C86.8402 18.9318 86.6271 18.4886 86.2464 18.1705C85.8714 17.8523 85.3004 17.6932 84.5334 17.6932C84.0447 17.6932 83.6442 17.7528 83.3317 17.8722C83.0249 17.9858 82.7976 18.142 82.6499 18.3409C82.5021 18.5398 82.4254 18.767 82.4197 19.0227C82.4084 19.233 82.4453 19.4233 82.5305 19.5938C82.6214 19.7585 82.7635 19.9091 82.9567 20.0455C83.1499 20.1761 83.397 20.2955 83.6982 20.4034C83.9993 20.5114 84.3572 20.608 84.772 20.6932L86.2038 21C87.1697 21.2045 87.9964 21.4744 88.6839 21.8097C89.3714 22.1449 89.9339 22.5398 90.3714 22.9943C90.8089 23.4432 91.13 23.9489 91.3345 24.5114C91.5447 25.0739 91.6527 25.6875 91.6584 26.3523C91.6527 27.5 91.3658 28.4716 90.7976 29.267C90.2294 30.0625 89.4169 30.6676 88.3601 31.0824C87.3089 31.4972 86.0447 31.7045 84.5675 31.7045C83.0504 31.7045 81.7266 31.4801 80.5959 31.0312C79.4709 30.5824 78.5959 29.892 77.9709 28.9602C77.3516 28.0227 77.0391 26.8239 77.0334 25.3636H81.5334C81.5618 25.8977 81.6953 26.3466 81.9339 26.7102C82.1726 27.0739 82.5078 27.3494 82.9396 27.5369C83.3771 27.7244 83.897 27.8182 84.4993 27.8182C85.005 27.8182 85.4283 27.7557 85.7692 27.6307C86.1101 27.5057 86.3686 27.3324 86.5447 27.1108C86.7209 26.8892 86.8118 26.6364 86.8175 26.3523C86.8118 26.0852 86.7237 25.8523 86.5533 25.6534C86.3885 25.4489 86.1158 25.267 85.7351 25.108C85.3544 24.9432 84.8402 24.7898 84.1925 24.6477L82.4538 24.2727C80.9084 23.9375 79.6896 23.3778 78.7976 22.5938C77.9112 21.804 77.4709 20.7273 77.4766 19.3636C77.4709 18.2557 77.7663 17.2869 78.3629 16.4574C78.9652 15.6222 79.7976 14.9716 80.8601 14.5057C81.9283 14.0398 83.1527 13.8068 84.5334 13.8068C85.9425 13.8068 87.1612 14.0426 88.1896 14.5142C89.218 14.9858 90.0107 15.6506 90.5675 16.5085C91.13 17.3608 91.4141 18.358 91.4197 19.5H86.8857ZM93.4609 14.0455H99.3587L103.415 23.9318H103.62L107.677 14.0455H113.575V31.5H108.938V21.4091H108.802L104.915 31.3636H102.12L98.2337 21.3409H98.0973V31.5H93.4609V14.0455ZM115.82 14.0455H121.718L125.775 23.9318H125.979L130.036 14.0455H135.934V31.5H131.298V21.4091H131.161L127.275 31.3636H124.479L120.593 21.3409H120.457V31.5H115.82V14.0455Z" fill="white"/>
</svg>
